<?xml version="1.0" encoding="utf-8"?>
<!-- Generator: Adobe Illustrator 27.5.0, SVG Export Plug-In . SVG Version: 6.00 Build 0)  -->
<svg version="1.1" id="Layer_1" xmlns="http://www.w3.org/2000/svg" xmlns:xlink="http://www.w3.org/1999/xlink" x="0px" y="0px"
	 viewBox="0 0 4000 4000" style="enable-background:new 0 0 4000 4000;" xml:space="preserve">
<g>
	<g>
		<g>
			<rect style="fill:#7DD4FF;" width="4000" height="4000"/>
		</g>
	</g>
	<g>
		<g style="opacity:0.72;">
			<g>
				<path style="fill:#75C7EA;" d="M2854.861,2075l-337.2-211.4l-64.199-40.25l161.399-281.4
					c204.75-347.5,451.9-348.701,596.4-216.35c0,0,0,0.05,0.05,0.05C3409.311,1507.05,3414.762,1939.15,2854.861,2075z"/>
			</g>
		</g>
		<g style="opacity:0.7;">
			<g>
				<path style="fill:#FFFFFF;" d="M3305.161,1463.15c-80.149-146.7-250.199-231.7-428.65-135.25
					c-17.15,89.15-74.249,133.85-163.55,142.65h-0.05c-26.5,32.9-52.6,70.75-78.05,113.95l-148.75,259.351l-32.649-20.5
					l161.399-281.4C2876.811,1097.45,3208.061,1219.55,3305.161,1463.15z"/>
			</g>
		</g>
		<g style="opacity:0.72;">
			<g>
				<path style="fill:#75C7EA;" d="M2236.811,1763.1l-41.95,123.55c0,0-331.4,66.7-329.6,76.7c0.8,4.401-77.999-97.45-166.45-212.85
					c-112.55-146.8-240.75-315.6-240.75-315.6c-144.7-431,140.85-655,407.2-563.6c0,0,0,0,0.05,0.05
					C2079.911,945,2282.062,1223.35,2236.811,1763.1z"/>
			</g>
		</g>
		<g style="opacity:0.7;">
			<g>
				<path style="fill:#FFFFFF;" d="M1501.411,1468.2c0,0,279.2,367.599,375.2,489.7c-7.45,2.451-11.55,4.3-11.35,5.45
					c1.801,10-407.2-528.45-407.2-528.45c-171.3-510.3,260.45-730.4,549.45-480.45C1721.061,760.05,1338.512,982.9,1501.411,1468.2z
					"/>
			</g>
		</g>
		<g>
			<g>
				<path style="fill:#212327;" d="M2236.836,1783.849c-0.583,0-1.167-0.025-1.758-0.073c-11.418-0.957-19.9-10.991-18.943-22.41
					c34.861-415.769-80.251-733.276-307.93-849.331c-124.473-63.442-261.135-51.69-356.658,30.686
					c-116.711,100.652-143.618,277.627-73.816,485.552c3.647,10.864-2.202,22.627-13.066,26.274
					c-10.872,3.647-22.627-2.205-26.274-13.066c-39.199-116.77-49.748-224.194-31.35-319.285
					c16.66-86.104,57.258-159.031,117.405-210.901c108.545-93.606,262.813-107.485,402.607-36.233
					c109.91,56.028,198.95,158.499,257.493,296.338c67.993,160.095,92.537,359.756,72.942,593.432
					C2256.579,1775.663,2247.507,1783.849,2236.836,1783.849z"/>
			</g>
		</g>
		<g style="opacity:0.3;">
			<g>
				<path style="fill:#3D1D55;" d="M2236.811,1763.1l-41.95,123.55c0,0-331.4,66.7-329.6,76.7c0.8,4.401-77.999-97.45-166.45-212.85
					c42.5-18.25,91.15-33.95,146.25-46.1c565.35-124.95,25.8-825.85,20.25-833.05C2079.911,945,2282.062,1223.35,2236.811,1763.1z"
					/>
			</g>
		</g>
		<g>
			<g>
				<path style="fill:#3D1D55;" d="M3015.709,2662.309c0,0,74.852,97.691,94.852,313.941c0,0-98.405-92.828-181.911-114.122"/>
			</g>
		</g>
		<g>
			<g>
				<g>
					<path style="fill:#FFCD01;" d="M2637.262,3204.75c-5.851,18-22.5,29.401-40.45,29.401c-4.35,0-8.75-0.651-13.1-2.051
						c-56.101-18.199-102.85-44.8-141-73.6c-94.549-71.5-136.749-156.649-139.15-161.649c-10.25-21.15-1.4-46.55,19.75-56.75
						c21.05-10.2,46.45-1.45,56.7,19.6c0.85,1.7,42.8,84.551,135.35,145.801c27.1,17.999,58.55,34.099,94.55,45.75
						C2632.262,3158.45,2644.461,3182.45,2637.262,3204.75z"/>
				</g>
			</g>
		</g>
		<g>
			<g>
				<g>
					<path style="fill:#212327;" d="M2596.821,3254.926c-6.614,0-13.176-1.04-19.507-3.091
						c-203.398-65.911-288.899-238.633-292.439-245.955c-15.19-31.387-2.007-69.285,29.387-84.478
						c31.316-15.144,69.167-2.031,84.404,29.219c0.581,1.155,67.842,132.334,217.642,180.876
						c16.072,5.208,29.153,16.362,36.836,31.409c7.681,15.046,9.043,32.185,3.835,48.257
						C2648.496,3237.34,2624.321,3254.926,2596.821,3254.926z M2341.748,2956.595c-3.169,0-6.379,0.696-9.412,2.163
						c-10.793,5.222-15.327,18.257-10.105,29.05c3.228,6.675,81.14,164.038,267.876,224.548c2.19,0.71,4.448,1.069,6.714,1.069
						c9.451,0,17.764-6.05,20.681-15.056c3.696-11.409-2.578-23.699-13.987-27.395c-167.009-54.119-239.097-196.018-242.085-202.031
						C2357.619,2961.124,2349.826,2956.595,2341.748,2956.595z"/>
				</g>
			</g>
		</g>
		<g style="opacity:0.3;">
			<g>
				<path style="fill:#3D1D55;" d="M2515.361,3105.5l-11.899,7.849c0,0-35.25,15.901-60.751,45.15
					c-94.549-71.5-136.749-156.649-139.15-161.649c-10.25-21.15-1.4-46.55,19.75-56.75c21.05-10.2,46.45-1.45,56.7,19.6
					C2380.862,2961.4,2422.811,3044.25,2515.361,3105.5z"/>
			</g>
		</g>
		<g>
			<g>
				<g>
					<path style="fill:#FFCD01;" d="M1789.061,2655.9c0.1,3.9-0.35,7.9-1.4,11.851c-2,7.5-43.45,154.349-226.05,241.4
						c-38,18.149-82.1,33.7-133.25,44.85c-3.051,0.699-6.1,1-9.1,1c-19.55,0-37.15-13.55-41.45-33.45
						c-5.05-22.9,9.5-45.551,32.45-50.551c70.15-15.299,124.25-40,165.751-67.45c80.649-53.45,113.75-117.6,124.8-144.65
						c3.3-8,4.65-12.75,4.7-13.051c6.05-22.7,29.4-36.15,52.05-30.1C1776.261,2620.701,1788.711,2637.45,1789.061,2655.9z"/>
				</g>
			</g>
		</g>
		<g>
			<g>
				<g>
					<path style="fill:#212327;" d="M1419.272,2975.76c-29.495,0-55.466-20.935-61.758-49.78
						c-3.601-16.501-0.559-33.423,8.567-47.642c9.126-14.216,23.242-24.031,39.749-27.634
						c231.763-50.564,277.856-203.921,279.705-210.425c4.302-16.125,14.761-29.775,29.392-38.235
						c14.624-8.457,31.663-10.718,47.983-6.353c16.318,4.358,29.966,14.812,38.428,29.438c8.459,14.624,10.715,31.67,6.355,47.991
						c-2.539,9.509-65.767,233.728-374.9,301.177C1428.325,2975.27,1423.781,2975.76,1419.272,2975.76z M1746.552,2635.04
						c-3.774,0-7.497,0.991-10.854,2.93c-5.029,2.91-8.625,7.6-10.125,13.213c-0.503,1.875-52.278,183.643-310.896,240.068
						c-5.679,1.238-10.535,4.614-13.672,9.504c-3.137,4.888-4.185,10.706-2.947,16.379c2.495,11.44,14.126,19.187,25.898,16.614
						c284.683-62.112,341.37-262.825,343.643-271.338c1.499-5.613,0.723-11.475-2.185-16.504c-2.91-5.027-7.603-8.623-13.213-10.122
						C1750.332,2635.287,1748.435,2635.04,1746.552,2635.04z"/>
				</g>
			</g>
		</g>
		<g style="opacity:0.3;">
			<g>
				<path style="fill:#3D1D55;" d="M1789.061,2655.9c0.1,3.9-0.35,7.9-1.4,11.851c-2,7.5-43.45,154.349-226.05,241.4
					c21.75-40.35,17.95-84.851,14.401-105.601c80.649-53.45,113.75-117.6,124.8-144.65c8.35-3.65,21.849-8.6,37.65-10.551
					C1750.962,2646.799,1766.012,2649.25,1789.061,2655.9z"/>
			</g>
		</g>
		<g style="opacity:0.72;">
			<g>
				<path style="fill:#75C7EA;" d="M2156.811,1763.1c-437.695-910.867,520-1153.1,485.379-280.317
					c0,0-113.712,268.884-222.046,348.884"/>
			</g>
		</g>
		<g>
			<g>
				<path style="fill:#212327;" d="M2156.826,1783.854c-7.727,0-15.146-4.336-18.716-11.768
					c-82.324-171.321-121.484-329.504-116.394-470.159c5.581-154.185,62.712-245.217,109.658-294.434
					c81.199-85.125,195.251-111.057,297.632-67.683c157.334,66.653,244.78,269.939,233.916,543.796
					c-0.454,11.45-10.022,20.449-21.555,19.91c-11.45-0.454-20.364-10.105-19.91-21.555
					c10.151-255.906-67.844-444.294-208.638-503.94c-86.096-36.475-182.432-14.206-251.416,58.115
					c-41.985,44.016-93.105,126.121-98.215,267.293c-4.846,133.86,32.947,285.491,112.324,450.684
					c4.963,10.33,0.615,22.725-9.714,27.688C2162.9,1783.195,2159.839,1783.854,2156.826,1783.854z"/>
			</g>
		</g>
		<g style="opacity:0.72;">
			<g>
				<path style="fill:#75C7EA;" d="M2456.861,1802.05l-302.25-30.95l-78.35-8c-358.55-686.25-8.551-1011.6,298.25-990.55
					C2672.611,793.1,2929.961,1140.65,2456.861,1802.05z"/>
			</g>
		</g>
		<g style="opacity:0.7;">
			<g>
				<path style="fill:#FFFFFF;" d="M2075.461,953.25c0,0.05,0,0.05,0,0.05c40.301,116.55,0.551,192.5-90.9,242.2
					c-15.35,149.05,21.45,339.75,140.5,572.6l-48.8-5c-412.45-789.45,112.699-1101.3,431.15-957.55
					C2358.111,765.25,2181.411,813.85,2075.461,953.25z"/>
			</g>
		</g>
		<g>
			<g>
				<path style="fill:#212327;" d="M2456.821,1822.784c-4.18,0-8.396-1.26-12.056-3.875c-9.319-6.667-11.47-19.629-4.805-28.95
					c276.685-386.799,334.409-723.406,154.414-900.425c-122.712-120.686-334.312-129.68-481.716-20.476
					c-216.731,160.559-223.462,491.186-18.003,884.431c5.305,10.159,1.375,22.693-8.782,28c-10.161,5.303-22.695,1.375-28-8.782
					c-116.541-223.057-167.393-423.101-151.143-594.57c17.534-185.044,108.23-288.347,181.223-342.424
					c79.172-58.65,177.397-88.667,276.621-84.463c99.968,4.216,191.914,42.817,258.899,108.696
					c61.499,60.483,130.913,172.246,112.341,361.199c-17.126,174.268-105.31,373.767-262.1,592.959
					C2469.663,1819.767,2463.288,1822.782,2456.821,1822.784z"/>
			</g>
		</g>
		<g>
			<g>
				<path style="fill:#212327;" d="M2854.863,2095.756c-9.353,0-17.844-6.37-20.146-15.862
					c-2.703-11.138,4.136-22.356,15.271-25.056c411.743-99.897,460.525-340.835,462.388-439.788
					c2.93-155.791-96.545-302.031-231.392-340.168c-155.071-43.87-318.457,57.314-448.247,277.588
					c-5.818,9.871-18.54,13.164-28.411,7.341c-9.873-5.818-13.159-18.538-7.341-28.411
					c198.997-337.717,412.666-319.819,495.293-296.453c154.902,43.813,264.915,203.997,261.589,380.884
					c-1.936,102.913-42.329,199.68-116.812,279.841c-85.933,92.485-212.869,159.602-377.283,199.492
					C2858.13,2095.565,2856.484,2095.756,2854.863,2095.756z"/>
			</g>
		</g>
		<g>
			<g>
				<path style="fill:#FFCD01;" d="M3019.612,2636.55c-4.801,36-12.35,72.749-22.801,110.1
					c-71.5,173.199-225.9,269.05-406.15,302.849c-27.901,5.2-56.5,8.95-85.451,11.201c-148.85,11.849-308.5-14.2-450.149-70.45
					c-90.6-35.951-173.85-84.301-242.15-142.95c-76.45-65.649-134.25-144.25-162.75-233l214.901-531.449l120.65-298.301
					c98.1-31.349,205.5-37.35,312.95-21.6c0.45,0.1,0.65,0.15,0.65,0.15c89.9,13.25,179.75,41.85,264.151,83.65
					c71.6,35.45,139.199,80.4,199.499,133.6v0.049c80.501,70.95,147.95,156.6,194.45,254c0,0.051,0,0.051,0,0.051
					C3014.011,2352.949,3039.512,2488.8,3019.612,2636.55z"/>
			</g>
		</g>
		<g>
			<g>
				<path style="fill:#232325;" d="M2055.062,2990.25c-90.6-35.951-173.85-84.301-242.15-142.95
					c277.35,28.101,640.551-522.3,486.4-1084.2c89.9,13.25,179.75,41.85,264.151,83.65
					C2639.311,2463.7,2380.161,2935.85,2055.062,2990.25z"/>
			</g>
		</g>
		<g>
			<g>
				<path style="fill:#232325;" d="M2590.662,3049.5c-11.1,5.25-22.4,9.9-33.85,14.05l-51.6-2.849l-244.5-13.401
					c229.1,5,618.6-703.25,502.25-1066.9c80.501,70.95,147.95,156.6,194.45,254c0,0.051,0,0.051,0,0.051
					C3014.412,2494.451,2856.461,2924.399,2590.662,3049.5z"/>
			</g>
		</g>
		<g style="opacity:0.7;">
			<g>
				<path style="fill:#FFFFFF;" d="M3019.612,2636.55c-4.801,36-12.35,72.749-22.801,110.1c-3,7.25-6.1,14.349-9.4,21.299
					c6.65-27.5,11.75-54.65,15.3-81.399c19.9-147.75-5.599-283.601-62.2-402.1c0,0,0,0,0-0.051
					c-46.5-97.4-113.95-183.049-194.45-254v-0.049c-60.3-53.201-127.9-98.151-199.5-133.6c-84.399-41.8-174.25-70.4-264.15-83.65
					c0,0-0.199-0.05-0.65-0.15c-107.45-15.75-214.85-9.75-312.95,21.6l-120.65,298.301l-196.5,485.95c-0.55-1.5-1-3-1.5-4.501
					l214.901-531.449l120.65-298.301c98.1-31.349,205.5-37.35,312.95-21.6c0.45,0.1,0.65,0.15,0.65,0.15
					c89.9,13.25,179.75,41.85,264.151,83.65c71.6,35.45,139.199,80.4,199.499,133.6v0.049c80.501,70.95,147.95,156.6,194.45,254
					c0,0.051,0,0.051,0,0.051C3014.011,2352.949,3039.512,2488.8,3019.612,2636.55z"/>
			</g>
		</g>
		<g>
			<g>
				<path style="fill:#212327;" d="M2433.774,3084.247c-128.552,0-263.271-25.828-386.372-74.712
					c-94.148-37.358-179.91-88.015-248.008-146.492c-83.511-71.716-140.366-153.269-168.989-242.397
					c-3.504-10.911,2.5-22.598,13.411-26.101c10.911-3.508,22.593,2.5,26.101,13.411c26.245,81.726,78.904,156.956,156.514,223.604
					c64.648,55.515,146.355,103.721,236.284,139.404c140.886,55.947,297.451,80.471,440.85,69.053
					c28.164-2.188,56.174-5.859,83.296-10.913c133.682-25.068,309.797-95.613,390.3-289.236
					c47.808-172.012,34.512-343.665-38.472-496.475c-0.134-0.278-0.259-0.559-0.381-0.845
					c-43.965-91.797-107.571-174.756-189.065-246.582c-0.31-0.271-0.61-0.552-0.901-0.84
					c-58.096-51.116-123.386-94.775-194.087-129.783c-83.352-41.279-170.144-68.772-257.969-81.716
					c-0.483-0.071-0.964-0.159-1.44-0.264c-106.667-15.525-211.355-8.281-302.82,20.952c-10.916,3.479-22.593-2.534-26.082-13.45
					c-3.486-10.916,2.534-22.593,13.45-26.082c97.681-31.213,209.119-38.953,322.278-22.363c0.493,0.073,0.984,0.164,1.472,0.271
					c91.855,13.628,182.532,42.38,269.526,85.464c74.324,36.802,142.966,82.771,204.019,136.636c0.31,0.273,0.61,0.557,0.901,0.845
					c85.513,75.569,152.31,162.981,198.547,259.824c0.134,0.286,0.264,0.571,0.386,0.862
					c77.209,162.158,91.133,343.987,40.271,525.913c-0.222,0.793-0.491,1.572-0.803,2.332
					c-68.179,165.156-217.871,277.141-421.506,315.327c-28.589,5.33-58.076,9.194-87.666,11.492
					C2482.781,3083.3,2458.388,3084.247,2433.774,3084.247z"/>
			</g>
		</g>
		<g>
			<g>
				<path style="fill:#212327;" d="M3110.566,2996.998c-5.183,0-10.303-1.941-14.238-5.649
					c-0.947-0.891-95.557-89.417-172.805-109.116c-11.104-2.83-17.81-14.128-14.978-25.232c2.83-11.106,14.116-17.825,25.232-14.978
					c53.899,13.743,112.122,54.104,149.966,84.089c-24.927-171.66-83.853-250.337-84.502-251.184
					c-6.97-9.097-5.247-22.122,3.85-29.089c9.097-6.973,22.122-5.247,29.089,3.85c3.206,4.182,78.726,104.968,99.043,324.651
					c0.793,8.594-3.813,16.777-11.57,20.559C3116.76,2996.31,3113.652,2996.998,3110.566,2996.998z"/>
			</g>
		</g>
		<g style="opacity:0.36;">
			<g>
				<path style="fill:#FFFFFF;" d="M2973.296,2582.426c-50.418,79.76-218.923-18.086-421.954-146.426
					c-203.031-128.341-363.703-238.576-313.285-318.336c50.418-79.76,255.879-40.377,458.909,87.963
					S3023.714,2502.666,2973.296,2582.426z"/>
			</g>
		</g>
		<g style="opacity:0.3;">
			<g>
				<path style="fill:#3D1D55;" d="M3019.612,2636.55c-4.801,36-12.35,72.749-22.801,110.1
					c-71.5,173.199-225.9,269.05-406.15,302.849c-27.901,5.2-56.5,8.95-85.451,11.201c-148.85,11.849-308.5-14.2-450.149-70.45
					c-90.6-35.951-173.85-84.301-242.15-142.95c-76.45-65.649-134.25-144.25-162.75-233l214.901-531.449l181.75-7.85
					C2046.811,2075,2077.411,3178.049,3019.612,2636.55z"/>
			</g>
		</g>
		<g>
			<g>
				<ellipse style="fill:#FFCD01;" cx="1356.811" cy="2071.881" rx="690" ry="705"/>
			</g>
		</g>
		<g style="opacity:0.3;">
			<g>
				<path style="fill:#3D1D55;" d="M2046.811,2075c0,389.351-308.9,705-690,705c-317.15,0-584.3-218.6-665-516.35
					c103.4,217.4,321.65,367.3,574.2,367.3c352.5,0,638.199-291.949,638.199-652.05c0-249.8-137.5-466.851-339.449-576.3
					C1844.211,1492.7,2046.811,1759.7,2046.811,2075z"/>
			</g>
		</g>
		<g style="opacity:0.7;">
			<g>
				<path style="fill:#FFFFFF;" d="M1865.261,1598.45c-123.55-119.2-290.15-192.2-473.45-192.2
					c-150.55,0-289.85,49.25-403.25,132.85c-7.5,113.7-71.45,171.25-175.75,188.55c-70.25,110.4-111,242.15-111,383.6
					c0,183.75,68.8,351.1,181.55,476.55c-133.35-128.501-216.55-310.701-216.55-512.8c0-389.35,308.9-705,690-705
					C1558.061,1370,1739.161,1458,1865.261,1598.45z"/>
			</g>
		</g>
		<g>
			<g>
				<path style="fill:#212327;" d="M1356.811,2800.751c-391.909,0-710.749-325.569-710.749-725.75s318.84-725.75,710.749-725.75
					s710.75,325.569,710.75,725.75S1748.72,2800.751,1356.811,2800.751z M1356.811,1390.751
					c-369.026,0-669.25,306.953-669.25,684.25s300.225,684.25,669.25,684.25s669.25-306.953,669.25-684.25
					S1725.837,1390.751,1356.811,1390.751z"/>
			</g>
		</g>
		<g>
			<g>
				<ellipse style="fill:#EE3133;" cx="937.436" cy="2376.25" rx="89.375" ry="51.25"/>
			</g>
		</g>
		<g>
			<g>
				<ellipse style="fill:#EE3133;" cx="1613.895" cy="2383.75" rx="94.167" ry="56.25"/>
			</g>
		</g>
		<g>
			<g>
				<path style="fill:#212327;" d="M1156.566,2374.702c27.425,44.139,74.989,69.31,124.87,68.169
					c53.026-1.078,90.514-37.553,115.69-81.991c1.486-2.406,4.641-3.153,7.049-1.669c1.684,1.038,2.555,2.9,2.419,4.749
					c-1.114,14.658-4.676,29.309-10.584,43.42c-41.536,98.456-179.898,101.425-234.358,13.525
					c-7.988-13.329-13.333-28.141-14.595-43.107c-0.238-2.827,1.86-5.313,4.686-5.549
					C1153.751,2372.078,1155.585,2373.089,1156.566,2374.702L1156.566,2374.702z"/>
			</g>
		</g>
		<g>
			<g>
				
					<ellipse transform="matrix(0.9247 -0.3807 0.3807 0.9247 -358.3948 409.8694)" style="fill:#25231D;" cx="856.811" cy="1110.833" rx="73.333" ry="90.833"/>
			</g>
		</g>
		<g>
			<g>
				<path style="fill:#212327;" d="M868.498,1220.06c-39.81,0.005-80.122-28.328-98.684-73.406
					c-11.038-26.809-12.917-55.708-5.298-81.377c8.098-27.268,25.789-47.732,49.814-57.622c24.023-9.895,50.994-7.817,75.942,5.845
					c23.484,12.861,42.498,34.71,53.535,61.514l0,0c11.038,26.807,12.917,55.706,5.298,81.375
					c-8.096,27.268-25.786,47.732-49.812,57.625C889.333,1218.114,878.928,1220.06,868.498,1220.06z M845.425,1043.055
					c-5.315,0-10.469,0.986-15.295,2.974c-12.202,5.022-21.375,16.052-25.83,31.06c-4.929,16.606-3.55,35.701,3.889,53.765
					c14.712,35.735,48.496,55.816,75.305,44.785c12.2-5.022,21.375-16.055,25.83-31.062c4.929-16.607,3.55-35.698-3.889-53.762l0,0
					c-7.437-18.066-19.9-32.595-35.093-40.916C862.043,1045.355,853.545,1043.055,845.425,1043.055z"/>
			</g>
		</g>
		<g>
			<g>
				
					<ellipse transform="matrix(0.9247 -0.3807 0.3807 0.9247 -298.3095 678.3072)" style="fill:#25231D;" cx="1565.353" cy="1093.169" rx="73.333" ry="90.833"/>
			</g>
		</g>
		<g>
			<g>
				<path style="fill:#212327;" d="M1576.679,1202.509c-14.961,0-30.22-4.028-44.788-12.007
					c-23.486-12.861-42.498-34.707-53.535-61.514s-12.92-55.706-5.298-81.375c8.096-27.268,25.786-47.732,49.812-57.625
					c24.023-9.895,50.994-7.815,75.945,5.847c23.486,12.861,42.498,34.707,53.535,61.511l0,0
					c23.423,56.895,3.454,119.25-44.514,139.001C1597.842,1200.463,1587.336,1202.509,1576.679,1202.509z M1553.967,1025.389
					c-5.317,0-10.469,0.986-15.295,2.974c-12.202,5.022-21.375,16.055-25.83,31.062c-4.932,16.606-3.55,35.698,3.889,53.762
					c7.437,18.066,19.9,32.598,35.093,40.918c13.735,7.522,28.02,8.892,40.212,3.87c26.809-11.038,36.65-49.094,21.941-84.827l0,0
					c-7.437-18.064-19.9-32.595-35.095-40.916C1570.586,1027.689,1562.085,1025.389,1553.967,1025.389z"/>
			</g>
		</g>
		<g>
			<g>
				<path style="fill:#212327;" d="M1067.351,1455.631c-8.32,0-16.172-5.039-19.356-13.264
					c-38.809-100.256-89.871-183.066-151.763-246.128c-8.025-8.179-7.903-21.316,0.276-29.343
					c8.181-8.022,21.313-7.903,29.343,0.276c65.869,67.114,119.985,154.663,160.845,260.215c4.136,10.686-1.174,22.703-11.86,26.841
					C1072.375,1455.179,1069.841,1455.631,1067.351,1455.631z"/>
			</g>
		</g>
		<g>
			<g>
				<path style="fill:#212327;" d="M1607.236,1517.421c-2.473,0-4.988-0.444-7.434-1.384c-10.698-4.109-16.04-16.113-11.931-26.809
					c58.257-151.67,0.723-297.905,0.134-299.365c-4.277-10.62,0.847-22.71,11.46-27.002c10.618-4.29,22.693,0.806,27,11.414
					c2.664,6.555,64.443,162.441,0.146,329.832C1623.442,1512.357,1615.576,1517.421,1607.236,1517.421z"/>
			</g>
		</g>
		<g style="opacity:0.55;">
			<g>
				<ellipse style="fill:#FFFFFF;" cx="1544.728" cy="1072.5" rx="29.583" ry="37.5"/>
			</g>
		</g>
		<g style="opacity:0.55;">
			<g>
				<ellipse style="fill:#FFFFFF;" cx="830.561" cy="1087.335" rx="29.583" ry="37.5"/>
			</g>
		</g>
		<g>
			<g>
				<g>
					<path style="fill:#FFCD01;" d="M2165.762,2648.45c-27.15,49.301-67.7,99.351-127.85,144.05c-5.3,3.95-11.2,6.45-17.3,7.6
						c-15.501,3-32.1-2.85-42.15-16.4c-14-18.85-10.1-45.45,8.75-59.449c51.45-38.201,85.099-81.301,106.949-123.301
						c53.55-102.55,36.65-198.45,36.4-199.8c-4.35-23,10.75-45.15,33.75-49.6h0.15c23.05-4.351,45.3,10.8,49.6,33.85
						C2215.461,2392.6,2237.562,2517.949,2165.762,2648.45z"/>
				</g>
			</g>
		</g>
		<g>
			<g>
				<g>
					<path style="fill:#212327;" d="M2012.739,2821.613c-19.795,0-38.938-9.351-50.952-25.532
						c-10.071-13.56-14.26-30.234-11.792-46.948c2.471-16.714,11.299-31.467,24.866-41.538
						c165.098-122.605,135.601-300.92,135.283-302.708c-6.414-34.023,16.108-67.141,50.227-73.704
						c34.512-6.497,67.644,16.128,74.106,50.396c1.96,10.422,45.388,257.083-184.204,427.573
						c-7.698,5.718-16.355,9.531-25.728,11.338c-0.002,0-0.002,0-0.005,0C2020.615,2821.244,2016.665,2821.613,2012.739,2821.613z
						 M2020.622,2800.114h0.049H2020.622z M2172.326,2371.539c-1.331,0-2.678,0.122-4.033,0.378
						c-11.816,2.273-19.561,13.662-17.346,25.403c0.381,2.019,36.14,204.36-151.348,343.591c-4.665,3.464-7.703,8.538-8.55,14.285
						c-0.85,5.747,0.591,11.479,4.055,16.143c5.027,6.775,13.313,9.998,21.594,8.398l0,0c3.206-0.615,6.177-1.929,8.833-3.901
						c208.984-155.188,169.929-377.2,168.164-386.575C2191.731,2378.834,2182.575,2371.539,2172.326,2371.539z"/>
				</g>
			</g>
		</g>
		<g>
			<g>
				<g>
					<path style="fill:#FFCD01;" d="M2751.111,3049.75c-5.25,18.8-22.35,31.1-40.95,31.1c-3.75,0-7.599-0.499-11.399-1.55
						c-64.65-17.999-115.6-47.1-155.65-80.649c-0.05,0-0.05-0.05-0.05-0.05c-119.1-99.75-142.05-239.349-143.25-247.15
						c-3.55-23.201,12.35-44.9,35.55-48.45c23.151-3.55,44.8,12.3,48.45,35.449c0.75,4.85,12,70.05,59.25,135.651
						c35.45,49.399,91.35,99.049,178.5,123.3C2744.161,3003.7,2757.411,3027.15,2751.111,3049.75z"/>
				</g>
			</g>
		</g>
		<g>
			<g>
				<g>
					<path style="fill:#212327;" d="M2710.171,3101.595c-5.713,0-11.423-0.781-16.98-2.324
						c-269.536-75.088-312.214-333.708-313.899-344.68c-5.283-34.478,18.464-66.821,52.932-72.112
						c34.37-5.244,66.704,18.386,72.075,52.744c1.226,7.605,32.607,189.194,222.822,242.183
						c33.596,9.36,53.313,44.309,43.955,77.905C2763.479,3082.565,2738.435,3101.595,2710.171,3101.595z M2441.821,2723.246
						c-1.091,0-2.192,0.083-3.303,0.254c-11.855,1.819-20.024,12.944-18.208,24.8c1.519,9.883,40.002,243.018,283.999,310.991
						c1.921,0.532,3.899,0.806,5.862,0.806c9.709,0,18.318-6.548,20.93-15.925c3.218-11.55-3.564-23.569-15.117-26.79
						c-215.522-60.037-251.255-266.873-252.668-275.649C2461.626,2730.939,2452.341,2723.246,2441.821,2723.246z"/>
				</g>
			</g>
		</g>
		<g style="opacity:0.3;">
			<g>
				<path style="fill:#3D1D55;" d="M2543.061,2998.6c-119.1-99.75-142.05-239.349-143.25-247.15
					c-3.55-23.201,12.35-44.9,35.55-48.45c23.151-3.55,44.8,12.3,48.45,35.449c0.75,4.85,12,70.05,59.25,135.651
					C2543.061,2874.1,2490.962,2920.549,2543.061,2998.6z"/>
			</g>
		</g>
		<g style="opacity:0.3;">
			<g>
				<path style="fill:#3D1D55;" d="M2165.762,2648.45c-0.8-3.95-1.3-8.4-1.45-13.45c-2.5-77.5-70.1-34-70.1-34l-0.05-0.05
					c53.55-102.55,36.65-198.45,36.4-199.8c-4.35-23,10.75-45.15,33.75-49.6h0.15c23.05-4.351,45.3,10.8,49.6,33.85
					C2215.461,2392.6,2237.562,2517.949,2165.762,2648.45z"/>
			</g>
		</g>
		<g style="opacity:0.3;">
			<g>
				<path style="fill:#3D1D55;" d="M2456.861,1802.05l-302.25-30.95l1.65-3c419.7-5,561.8-878.1,218.2-995.5c0,0,0,0,0.05-0.05
					C2672.611,793.1,2929.961,1140.65,2456.861,1802.05z"/>
			</g>
		</g>
		<g style="opacity:0.3;">
			<g>
				<path style="fill:#3D1D55;" d="M2854.911,2075c-28.05-33.9-58.9-65.45-91.95-94.6v-0.049c-40.25-35.5-83.75-67.35-129.499-95.1
					c294.349,80.8,757.4-223.051,577.85-559.6C3409.311,1507.05,3414.762,1939.1,2854.911,2075z"/>
			</g>
		</g>
		<g>
			<g>
				<g>
					<g>
						<g>
							<path style="fill:#232325;" d="M1038.849,1933.275c60.156,4.208,103.533,78.37,96.885,165.644
								c-6.647,87.275-60.803,154.615-120.96,150.407c-60.155-4.208-103.534-78.369-96.886-165.645
								C924.536,1996.407,978.694,1929.066,1038.849,1933.275z"/>
						</g>
					</g>
				</g>
			</g>
			<g>
				<g>
					<g>
						<g>
							<path style="fill:#FFFFFF;" d="M1036.776,1969.956c17.475,11.125,20.526,41.751,6.814,68.404
								c-13.712,26.654-38.993,39.242-56.469,28.116c-17.475-11.124-20.526-41.75-6.814-68.402
								C994.02,1971.419,1019.3,1958.83,1036.776,1969.956z"/>
						</g>
					</g>
				</g>
			</g>
			<g>
				<g>
					<g>
						<g>
							<path style="fill:#B199C5;" d="M1068.214,2165.5c7.776,8.144,6.071,24.443-3.806,36.403
								c-9.876,11.961-24.186,15.055-31.96,6.911c-7.775-8.143-6.071-24.442,3.806-36.402
								C1046.129,2160.451,1060.44,2157.358,1068.214,2165.5z"/>
						</g>
					</g>
				</g>
			</g>
		</g>
		<g>
			<g>
				<path style="fill:#212327;" d="M1631.85,2001.113c-80.962,22.265-141.072,87.751-172.169,163.68
					c-0.002,0.01-31.368-43.956-31.369-43.954c38.37-2.478,77.152-2.595,115.519,1.67c38.3,4.248,76.252,13.096,111.039,28.328
					c3.141,1.375,4.573,5.037,3.197,8.179c-1.197,2.733-4.135,4.18-6.945,3.589c-71.52-14.174-143.67-2.23-212.731,17.38
					c-25.744,7.516-46.749-22.367-31.364-43.958c37.905-57.634,91.04-108.596,156.663-132.355
					c21.393-7.906,43.533-12.911,65.648-15.276c3.574-0.383,6.781,2.205,7.163,5.779
					C1636.844,1997.356,1634.824,2000.261,1631.85,2001.113L1631.85,2001.113z"/>
			</g>
		</g>
	</g>
</g>
</svg>
